<svg id="Normal" xmlns="http://www.w3.org/2000/svg" viewBox="0 0 674.75 183.63"><defs><style>.cls-1{fill:#e01f1d;}.cls-2{fill:#ebd6a3;}</style></defs><title>SamEyde_vgs_rgb</title><path class="cls-1" d="M146.3,1H1V96.69c0,.34-.69,28.9,22.24,55,13.33,15.19,45.46,29,50.41,31,4.95-2.07,37.08-15.86,50.42-31C147,125.59,146.31,97,146.3,96.69Z"/><path class="cls-2" d="M64.86,63.72h0Z"/><path class="cls-2" d="M82.47,63.73h0l0,0Z"/><path class="cls-2" d="M133.58,84.44c-1-2.54-4.94.2-5.79-1.84-.58-1.39,2.62-1.76,1.63-3.91-1.19-2.6-6.34.69-7.35-.9-.82-1.3,2.44-1.5,1.45-3.78-.55-1.29-2.54-.75-3.39-.56L115,74.51c-.81-.89-2.4-2-5.43-3.33-.77-.24,2-2.49,2.74-3.05.42-.32,1.85-1.44,2.75-2.17L120.19,67c.85.19,2.85.72,3.4-.56,1-2.28-2.28-2.48-1.45-3.78,1-1.59,6.15,1.69,7.35-.9,1-2.15-2.21-2.52-1.63-3.91.85-2,4.78.7,5.78-1.84s-3.32-3-2-4.47,3.43-3.7,1.67-5.47-4,.37-5.48,1.66-1.93-3-4.47-2,.21,4.93-1.84,5.79c-1.39.58-1.75-2.63-3.91-1.64-2.59,1.2.69,6.35-.9,7.36-1.3.82-1.5-2.44-3.78-1.46-1.28.56-.74,2.55-.55,3.4l1.15,5.62c-2,1.89-5.55,5.24-7.83,5.12-.27,0-8.14-1.29-13.63,1.44C82.13,76.32,79.85,81,78.76,83.25c-.48,1-.7,1.4-1.1,1.42,0,0,0,0-.11-.06-1-1-1.06-6.85-1.06-13.82-.13-5.07,4.11-7.74,7.27-9l5.88,2.89c.77.4,2.56,1.43,3.42.33,1.54-2-1.57-3-.45-4,1.38-1.28,5.53,3.2,7.35,1,1.5-1.83-1.51-3-.59-4.19,1.34-1.76,4.45,1.88,6.06-.32s-2.46-3.71-.82-4.83,4.26-2.72,3-4.88-4-.65-5.72.23-1.1-3.41-3.81-3.08S97,49.69,94.83,50c-1.48.21-1-3-3.36-2.57-2.82.5-1,6.32-2.74,6.89-1.46.47-.83-2.74-3.29-2.37-1.38.22-1.36,2.28-1.39,3.15l-.25,4.64a16,16,0,0,0-6.61,3.85.21.21,0,0,1-.36-.16c.26-6.12.28-10,2.34-13.61s6-9.26,12-11.69l1.42-.64,6.12,1.63c.83.24,2.79.89,3.42-.35,1.12-2.22-2.13-2.61-1.23-3.86,1.1-1.53,6,2.05,7.39-.47,1.12-2.09-2.06-2.65-1.4-4,1-2,4.74,1,5.89-1.5s-3.15-3.16-1.75-4.58,3.64-3.5,2-5.37-4,.14-5.56,1.35-1.75-3.13-4.35-2.27S103.05,23,101,23.74c-1.42.49-1.6-2.73-3.81-1.86-2.66,1,.32,6.37-1.33,7.29-1.34.74-1.35-2.53-3.69-1.68-1.31.48-.89,2.5-.75,3.36L92,35.42A35.3,35.3,0,0,0,77.42,47l-.46.7c-.56.87-.89,1.35-1.37,1.42,0-.49-.47-5.13-.58-8.25l4.48-3c.74-.47,2.53-1.5,2-2.8-.91-2.31-3.36-.14-3.7-1.64-.41-1.84,5.55-3.16,4.56-5.84-.82-2.22-3.34-.22-3.91-1.61-.84-2.05,3.87-2.89,2.79-5.39s-4.46.25-4.59-1.74-.19-5.05-2.69-5.05a3,3,0,0,0-.31,0,3,3,0,0,0-.31,0c-2.5,0-2.56,3.08-2.69,5.05s-3.5-.77-4.58,1.74S69.7,24,68.86,26.05c-.57,1.39-3.1-.61-3.92,1.61-1,2.68,5,4,4.56,5.84-.33,1.5-2.78-.67-3.7,1.64-.51,1.3,1.27,2.33,2,2.8l4.48,3c-.11,3.12-.53,7.76-.57,8.25-.49-.07-.82-.55-1.38-1.42l-.46-.7A35.3,35.3,0,0,0,55.26,35.42l.66-4.57c.14-.86.56-2.88-.75-3.36-2.33-.85-2.34,2.42-3.69,1.68-1.64-.92,1.33-6.25-1.33-7.29-2.2-.87-2.39,2.35-3.8,1.86-2.09-.74.41-4.82-2.18-5.67s-2.77,3.49-4.34,2.27-3.9-3.22-5.56-1.35.59,4,2,5.37-2.9,2.1-1.75,4.58,4.91-.49,5.88,1.5c.66,1.35-2.52,1.91-1.4,4,1.35,2.52,6.3-1.06,7.39.47.9,1.25-2.35,1.64-1.23,3.86.63,1.24,2.59.59,3.43.35l6.12-1.63,1.41.64c6,2.43,10.07,8.27,12,11.69s2.08,7.49,2.34,13.61a.21.21,0,0,1-.36.16,16,16,0,0,0-6.6-3.85l-.25-4.64c0-.87,0-2.93-1.4-3.15-2.46-.37-1.82,2.84-3.29,2.37-1.79-.57.08-6.39-2.73-6.89C53.5,47,54,50.21,52.47,50c-2.19-.31-.54-4.8-3.25-5.13s-2,4-3.81,3.08-4.45-2.38-5.72-.23,1.37,3.77,3,4.88-2.43,2.63-.82,4.83,4.72-1.44,6.07.32c.91,1.19-2.1,2.36-.59,4.19,1.81,2.21,6-2.27,7.34-1,1.12,1-2,2.07-.45,4,.86,1.1,2.65.07,3.43-.33l5.87-2.89c3.16,1.29,7.4,4,7.28,9,0,7-.11,12.87-1.07,13.82-.06.07-.1.06-.11.06-.39,0-.62-.45-1.09-1.42-1.1-2.25-3.37-6.93-13.3-11.88-5.5-2.73-13.37-1.48-13.63-1.44-2.28.12-5.8-3.23-7.83-5.12l1.15-5.62c.19-.85.72-2.84-.56-3.4-2.28-1-2.48,2.28-3.78,1.46-1.59-1,1.69-6.16-.9-7.36-2.15-1-2.52,2.22-3.91,1.64-2-.86.7-4.79-1.84-5.79s-3,3.32-4.47,2-3.7-3.43-5.47-1.66.36,4,1.66,5.47-3,1.93-2,4.47,4.93-.2,5.79,1.84c.58,1.39-2.63,1.76-1.64,3.91,1.2,2.59,6.35-.69,7.36.9.82,1.3-2.44,1.5-1.46,3.78.56,1.28,2.55.75,3.4.56L32.27,66c.89.73,2.33,1.85,2.74,2.17.74.56,3.52,2.81,2.74,3.05-3,1.34-4.62,2.44-5.42,3.33l-5.15-1.06c-.85-.19-2.85-.73-3.4.56-1,2.28,2.28,2.48,1.45,3.78-1,1.59-6.15-1.7-7.35.9-1,2.15,2.21,2.52,1.63,3.91-.85,2-4.78-.7-5.78,1.84s3.32,3,2,4.47-3.43,3.7-1.67,5.47,4-.37,5.48-1.67,1.93,3,4.47,2-.21-4.93,1.84-5.79c1.39-.58,1.76,2.63,3.91,1.63,2.59-1.19-.69-6.34.9-7.35,1.3-.82,1.5,2.44,3.78,1.46,1.28-.56.75-2.55.55-3.4L33.84,75.6a17.94,17.94,0,0,1,8.51-3.67C54.68,70.31,62.79,78.53,66,85.87c2.54,5.85,2.33,21.1,1.34,24.8,0,0-.3.21-7.22-4.32a11.6,11.6,0,0,1-3.56-3.71l2.26-4.46c.41-.77,1.46-2.55.37-3.42-1.94-1.55-3,1.54-4,.4-1.27-1.39,3.25-5.49,1.07-7.33-1.82-1.52-3,1.47-4.2.55-1.75-1.37,1.93-4.44-.25-6.07s-3.75,2.42-4.84.76-2.67-4.29-4.84-3-.7,4,.16,5.72-3.42,1.07-3.12,3.78,4.81,1.1,5.09,3.3c.2,1.49-3,1-2.6,3.34.47,2.82,6.3,1,6.85,2.81.45,1.47-2.75.8-2.4,3.26.2,1.39,2.26,1.4,3.13,1.43l5.5.36a11.32,11.32,0,0,0,2.15,2.68,25.67,25.67,0,0,0-10,2.45l-5.49-2.26c-.79-.35-2.65-1.25-3.44-.09-1.4,2,1.77,2.86.72,4-1.29,1.37-5.73-2.82-7.39-.5-1.38,1.93,1.69,2.89.86,4.15-1.22,1.84-4.57-1.59-6,.71s2.71,3.55,1.14,4.77-4.07,3-2.67,5.06,4,.4,5.69-.6,1.33,3.32,4,2.82.73-4.88,2.9-5.34c1.47-.3,1.23,2.91,3.53,2.34,2.77-.68.52-6.36,2.27-7,1.43-.56,1,2.68,3.44,2.14,1.36-.3,1.21-2.36,1.18-3.23l-.06-4.86a13,13,0,0,1,2.71-1.31c3.6-1.06,14-3.82,16.06,9.53,1.33,6.09.79,12-1.09,15.56-2.45,4.67-7.59-.07-12.57-1.88-9.47-3.43-15.45,2.74-18.9,3.95a6,6,0,0,1-4.17.09.42.42,0,0,0-.49.63c1.65,2.4,5.55,6.71,10.68,3.28,7.71-5.13,15.07-2.9,18.6.46a.41.41,0,0,1-.41.69c-6.37-1.77-9.15,2.93-13.38,5.07a8,8,0,0,1-7.21-.06.42.42,0,0,0-.57.54,7.25,7.25,0,0,0,3.63,3.95c5.13,2.09,10.24-1.2,12.86-3.39,3.26-2.73,9.87-.79,9.33,2.56-.43,2.57-5.2,4.17-7.16,4.72a.41.41,0,0,0-.12.74,7.52,7.52,0,0,0,4.41,1.36c6.83-.36,6.57-6.16,9.07-5.36,2,.27,3.85,11.3,4.93,11.32s2.89-11,4.94-11.32c2.49-.8,2.24,5,9.06,5.36a7.49,7.49,0,0,0,4.41-1.36.41.41,0,0,0-.12-.74c-2-.55-6.73-2.15-7.15-4.72-.55-3.35,6.06-5.29,9.32-2.56,2.62,2.19,7.74,5.48,12.87,3.39a7.23,7.23,0,0,0,3.62-3.95.42.42,0,0,0-.56-.54,8,8,0,0,1-7.22.06c-4.22-2.14-7-6.84-13.37-5.07a.41.41,0,0,1-.41-.69c3.52-3.36,10.89-5.59,18.59-.46,5.14,3.43,9-.88,10.68-3.28a.42.42,0,0,0-.49-.63,6,6,0,0,1-4.16-.09c-3.45-1.21-9.44-7.38-18.91-3.95-5,1.81-10.11,6.55-12.56,1.88-1.89-3.59-2.43-9.47-1.1-15.56,2.1-13.35,12.46-10.59,16.06-9.53a13,13,0,0,1,2.71,1.31l-.06,4.86c0,.87-.18,2.93,1.19,3.23,2.42.54,2-2.7,3.43-2.14,1.75.69-.5,6.37,2.27,7,2.31.57,2.06-2.64,3.53-2.34,2.17.46.22,4.84,2.91,5.34s2.29-3.82,4-2.82,4.29,2.67,5.69.6-1.11-3.85-2.66-5.06,2.59-2.46,1.13-4.77-4.8,1.13-6-.71c-.83-1.26,2.25-2.22.87-4.15-1.67-2.32-6.11,1.87-7.39.5-1.06-1.12,2.11-1.93.71-4-.79-1.16-2.64-.26-3.44.09l-5.48,2.26a25.74,25.74,0,0,0-10.06-2.45A10.84,10.84,0,0,0,92.62,104l5.5-.36c.87,0,2.94,0,3.13-1.43.35-2.46-2.85-1.79-2.4-3.26.55-1.8,6.39,0,6.86-2.81.39-2.34-2.8-1.85-2.61-3.34.29-2.2,4.8-.59,5.1-3.3s-4-2-3.12-3.78,2.33-4.48.16-5.72-3.75,1.41-4.84,3-2.66-2.4-4.84-.76,1.49,4.7-.25,6.07c-1.19.92-2.39-2.07-4.2-.55-2.19,1.84,2.33,5.94,1.07,7.33-1,1.14-2.09-2-4-.4-1.09.87-.05,2.65.36,3.42l2.26,4.46a11.56,11.56,0,0,1-3.55,3.71c-6.93,4.53-7.23,4.32-7.23,4.32-1-3.7-1.2-19,1.34-24.8C84.51,78.53,92.62,70.31,105,71.93a17.85,17.85,0,0,1,8.51,3.67l-1.16,5.68c-.19.85-.73,2.84.56,3.4,2.27,1,2.48-2.28,3.77-1.46,1.59,1-1.69,6.16.91,7.35,2.15,1,2.52-2.21,3.9-1.63,2,.86-.69,4.79,1.85,5.79s3-3.33,4.46-2,3.71,3.44,5.48,1.67-.37-4-1.67-5.47S134.58,87,133.58,84.44Z"/><path d="M198.51,65.49a12.2,12.2,0,0,1-5.15-3.83,9.06,9.06,0,0,1-1.87-5.12,1.1,1.1,0,0,1,.33-.78,1.17,1.17,0,0,1,.84-.33h2.74a1.43,1.43,0,0,1,1.4,1.11,6.77,6.77,0,0,0,2.88,4.06c1.58,1.14,3.85,1.7,6.79,1.7q4.75,0,7.1-1.67A5.39,5.39,0,0,0,215.92,56a4.44,4.44,0,0,0-1.14-3.14,9.77,9.77,0,0,0-3.41-2.15c-1.51-.61-3.78-1.37-6.8-2.26a34.08,34.08,0,0,1-6.85-2.63,10.24,10.24,0,0,1-3.83-3.44,9.59,9.59,0,0,1-1.28-5.17,9.39,9.39,0,0,1,1.62-5.4,10.85,10.85,0,0,1,4.7-3.74,17.75,17.75,0,0,1,7.26-1.37,16.62,16.62,0,0,1,7.47,1.54,12.18,12.18,0,0,1,4.72,3.85,9,9,0,0,1,1.74,4.67,1.16,1.16,0,0,1-1.18,1.18h-2.79a1.46,1.46,0,0,1-.84-.28,1.55,1.55,0,0,1-.56-.84,5.64,5.64,0,0,0-2.69-4,10.37,10.37,0,0,0-5.87-1.57,10.85,10.85,0,0,0-6,1.48,4.92,4.92,0,0,0-2.24,4.39,4.78,4.78,0,0,0,1,3.19,8.61,8.61,0,0,0,3.19,2.18,54.48,54.48,0,0,0,6.29,2.18,44.53,44.53,0,0,1,7.46,2.69A10.22,10.22,0,0,1,220,50.7a9,9,0,0,1,1.34,5.12,9.58,9.58,0,0,1-4,8.19q-4,2.94-10.82,2.93A20,20,0,0,1,198.51,65.49Z"/><path d="M231,65.83a9.51,9.51,0,0,1-3.69-3,7.18,7.18,0,0,1-1.37-4.28,7.31,7.31,0,0,1,3-6,17.45,17.45,0,0,1,8.22-3.13l8.38-1.17V46.54q0-5.76-6.65-5.76a7.38,7.38,0,0,0-4.14,1,6.59,6.59,0,0,0-2.29,2.43A1.77,1.77,0,0,1,232,45a1.1,1.1,0,0,1-.7.19h-2.18a1.18,1.18,0,0,1-.86-.36,1.16,1.16,0,0,1-.37-.87,5.43,5.43,0,0,1,1.21-3,9.85,9.85,0,0,1,3.71-3,13.65,13.65,0,0,1,6.15-1.26q6.27,0,9,2.91a10.24,10.24,0,0,1,2.71,7.27V65.1a1.25,1.25,0,0,1-.36.92,1.28,1.28,0,0,1-.93.37h-2.46A1.16,1.16,0,0,1,246,66a1.32,1.32,0,0,1-.34-.92V62.64a9.44,9.44,0,0,1-3.57,3.07,13,13,0,0,1-6,1.23A11.54,11.54,0,0,1,231,65.83Zm12.21-5.37q2.36-2.4,2.35-7V51.9l-6.54,1a15.21,15.21,0,0,0-6.09,1.91,4,4,0,0,0-.2,6.87,7.92,7.92,0,0,0,4.45,1.23A8.05,8.05,0,0,0,243.17,60.46Z"/><path d="M258,66a1.25,1.25,0,0,1-.36-.92V38.6a1.29,1.29,0,0,1,.36-.93,1.25,1.25,0,0,1,.92-.36h2.35a1.15,1.15,0,0,1,.89.36,1.32,1.32,0,0,1,.34.93v1.9a9.92,9.92,0,0,1,8.16-3.75q6.15,0,8.73,5.15a9.8,9.8,0,0,1,3.83-3.75,11.15,11.15,0,0,1,5.56-1.4,9.79,9.79,0,0,1,7.49,3.13q2.91,3.13,2.91,9.06V65.1a1.22,1.22,0,0,1-.37.92,1.26,1.26,0,0,1-.92.37h-2.4a1.28,1.28,0,0,1-.93-.37,1.25,1.25,0,0,1-.36-.92V49.44q0-4.47-1.84-6.4a6.45,6.45,0,0,0-4.87-1.93,6.22,6.22,0,0,0-4.61,2c-1.29,1.32-1.93,3.44-1.93,6.34V65.1a1.25,1.25,0,0,1-.36.92,1.28,1.28,0,0,1-.93.37h-2.46A1.25,1.25,0,0,1,276,65.1V49.44Q276,45,274,43.07a6.47,6.47,0,0,0-4.78-2,6.25,6.25,0,0,0-4.61,2c-1.29,1.31-1.93,3.41-1.93,6.32V65.1a1.22,1.22,0,0,1-.37.92,1.26,1.26,0,0,1-.92.37H259A1.26,1.26,0,0,1,258,66Z"/><path d="M322.14,66a1.32,1.32,0,0,1-.34-.92V28.59a1.41,1.41,0,0,1,.34-1,1.15,1.15,0,0,1,.89-.36h23a1.26,1.26,0,0,1,1.35,1.34v2a1.2,1.2,0,0,1-.37.9,1.4,1.4,0,0,1-1,.33H327V44.3h17.83a1.33,1.33,0,0,1,1,.36,1.35,1.35,0,0,1,.37,1v1.9a1.28,1.28,0,0,1-.37.93,1.33,1.33,0,0,1-1,.36H327V61.74h19.51a1.26,1.26,0,0,1,1.34,1.35v2a1.2,1.2,0,0,1-.39.92,1.36,1.36,0,0,1-1,.37H323A1.16,1.16,0,0,1,322.14,66Z"/><path d="M357,76.67a1,1,0,0,1-.34-.78,5.14,5.14,0,0,1,.28-1l4.36-10.23L350.64,39.44a2.68,2.68,0,0,1-.33-.95,1.28,1.28,0,0,1,.39-.84,1,1,0,0,1,.78-.34h2.57a1.44,1.44,0,0,1,1.35.9L364,58.78l8.83-20.57a1.44,1.44,0,0,1,1.34-.9h2.52a1,1,0,0,1,.78.34,1.08,1.08,0,0,1,.34.78,2.72,2.72,0,0,1-.28,1L361.71,76.11a2.19,2.19,0,0,1-.58.67,1.36,1.36,0,0,1-.81.23h-2.46A1.11,1.11,0,0,1,357,76.67Z"/><path d="M383.66,63.14a16.31,16.31,0,0,1-3.16-9.61l-.06-1.68.06-1.68a16.27,16.27,0,0,1,3.19-9.59q3-3.82,8.77-3.83a10.85,10.85,0,0,1,9.06,4.14V28a1.22,1.22,0,0,1,.37-.92,1.24,1.24,0,0,1,.92-.36h2.51a1.27,1.27,0,0,1,.93.36,1.25,1.25,0,0,1,.36.92V65.1a1.25,1.25,0,0,1-.36.92,1.28,1.28,0,0,1-.93.37h-2.4A1.16,1.16,0,0,1,402,66a1.28,1.28,0,0,1-.34-.92V62.69q-3.18,4.26-9.23,4.25Q386.6,66.94,383.66,63.14ZM399.4,60a10.86,10.86,0,0,0,2.12-6.17q.06-.62.06-2.13c0-1,0-1.77-.06-2.18a9.51,9.51,0,0,0-2.15-5.9,7.12,7.12,0,0,0-5.84-2.49c-2.69,0-4.64.84-5.87,2.52a11.82,11.82,0,0,0-2,6.6l-.05,1.62q0,10.73,7.94,10.73A6.87,6.87,0,0,0,399.4,60Z"/><path d="M416.42,63.39q-3.41-3.54-3.74-9.7l-.06-1.9.06-1.84a14.6,14.6,0,0,1,3.74-9.62,12,12,0,0,1,9.12-3.58q6.15,0,9.53,3.92t3.38,10.62v1a1.23,1.23,0,0,1-1.28,1.28H417.76v.5A10.42,10.42,0,0,0,420,60.29a6.67,6.67,0,0,0,5.48,2.57,8,8,0,0,0,4.28-1,9,9,0,0,0,2.48-2.15,2.82,2.82,0,0,1,.79-.81,2.16,2.16,0,0,1,1-.14h2.46a1.45,1.45,0,0,1,.87.27.89.89,0,0,1,.36.73,4.92,4.92,0,0,1-1.51,3,12.31,12.31,0,0,1-4.28,3,15.29,15.29,0,0,1-6.34,1.25A12.05,12.05,0,0,1,416.42,63.39Zm16.94-13.61v-.17a9.42,9.42,0,0,0-2.12-6.37,7.16,7.16,0,0,0-5.7-2.46,7.06,7.06,0,0,0-5.71,2.46,9.55,9.55,0,0,0-2.07,6.37v.17Z"/><path d="M202.14,123.12l-10.4-25.94a1.84,1.84,0,0,1-.06-.56,1.15,1.15,0,0,1,.34-.84,1.08,1.08,0,0,1,.78-.34h2.57a1.44,1.44,0,0,1,1.35.9l8.61,22.31,8.61-22.31a1.29,1.29,0,0,1,.47-.62,1.41,1.41,0,0,1,.87-.28h2.57a1.08,1.08,0,0,1,.78.34,1.11,1.11,0,0,1,.34.84l-.11.56-10.35,25.94a2.12,2.12,0,0,1-2.06,1.4h-2.24A2.12,2.12,0,0,1,202.14,123.12Z"/><path d="M223.93,89.6a1.25,1.25,0,0,1-.36-.92V85.77a1.36,1.36,0,0,1,.36-1,1.22,1.22,0,0,1,.93-.39h3.29a1.28,1.28,0,0,1,.95.39,1.27,1.27,0,0,1,.4,1v2.91a1.18,1.18,0,0,1-.4.92,1.34,1.34,0,0,1-.95.36h-3.29A1.27,1.27,0,0,1,223.93,89.6Zm.45,34.55a1.25,1.25,0,0,1-.36-.92V96.73a1.25,1.25,0,0,1,1.28-1.29h2.46a1.28,1.28,0,0,1,.93.37,1.25,1.25,0,0,1,.36.92v26.5a1.25,1.25,0,0,1-1.29,1.29H225.3A1.22,1.22,0,0,1,224.38,124.15Z"/><path d="M238.13,121.27a16.31,16.31,0,0,1-3.16-9.61l-.06-1.68.06-1.68a16.27,16.27,0,0,1,3.19-9.59q3-3.83,8.77-3.83A10.85,10.85,0,0,1,256,99V86.11a1.25,1.25,0,0,1,1.29-1.29h2.51a1.23,1.23,0,0,1,1.29,1.29v37.12a1.25,1.25,0,0,1-1.29,1.29h-2.4a1.13,1.13,0,0,1-.89-.37,1.28,1.28,0,0,1-.34-.92v-2.4q-3.18,4.24-9.23,4.25Q241.07,125.08,238.13,121.27Zm15.74-3.15a10.92,10.92,0,0,0,2.12-6.18q.06-.61.06-2.13c0-1,0-1.77-.06-2.18a9.51,9.51,0,0,0-2.15-5.9A7.15,7.15,0,0,0,248,99.25c-2.69,0-4.64.83-5.87,2.51a11.82,11.82,0,0,0-2,6.6l-.05,1.62q0,10.74,7.94,10.74A6.89,6.89,0,0,0,253.87,118.12Z"/><path d="M270.89,121.53q-3.4-3.56-3.74-9.7l-.06-1.91.06-1.84a14.6,14.6,0,0,1,3.74-9.62A12,12,0,0,1,280,94.88q6.15,0,9.53,3.92t3.38,10.62v1a1.25,1.25,0,0,1-.36.92,1.27,1.27,0,0,1-.92.36H272.23v.51a10.42,10.42,0,0,0,2.24,6.2A6.67,6.67,0,0,0,280,121a8,8,0,0,0,4.28-1,9.24,9.24,0,0,0,2.49-2.15,2.7,2.7,0,0,1,.78-.81,2.16,2.16,0,0,1,.95-.14h2.46a1.35,1.35,0,0,1,.86.28.85.85,0,0,1,.37.72,5,5,0,0,1-1.51,3,12.43,12.43,0,0,1-4.28,3,15.14,15.14,0,0,1-6.34,1.26A12.09,12.09,0,0,1,270.89,121.53Zm16.94-13.62v-.17a9.44,9.44,0,0,0-2.12-6.37,7.16,7.16,0,0,0-5.7-2.46,7.06,7.06,0,0,0-5.71,2.46,9.57,9.57,0,0,0-2.07,6.37v.17Z"/><path d="M299.1,124.15a1.25,1.25,0,0,1-.36-.92V96.79a1.34,1.34,0,0,1,.36-1,1.18,1.18,0,0,1,.92-.4h2.35a1.26,1.26,0,0,1,1.34,1.35v2.46q2.3-3.81,7.77-3.81h2.18a1.3,1.3,0,0,1,.95.34,1.26,1.26,0,0,1,.34,1V98.8a1.28,1.28,0,0,1-.34.92,1.23,1.23,0,0,1-.95.36h-3.18a6.49,6.49,0,0,0-4.84,1.79,6.67,6.67,0,0,0-1.76,4.87v16.49a1.2,1.2,0,0,1-.39.92,1.32,1.32,0,0,1-.95.37H300A1.22,1.22,0,0,1,299.1,124.15Z"/><path d="M321.35,121.53q-3.41-3.56-3.75-9.7l-.05-1.91.05-1.84a14.66,14.66,0,0,1,3.75-9.62,12,12,0,0,1,9.11-3.58q6.15,0,9.54,3.92t3.38,10.62v1a1.25,1.25,0,0,1-.36.92,1.27,1.27,0,0,1-.93.36h-19.4v.51a10.42,10.42,0,0,0,2.24,6.2,6.66,6.66,0,0,0,5.48,2.57,8,8,0,0,0,4.28-1,9.34,9.34,0,0,0,2.48-2.15A2.82,2.82,0,0,1,338,117a2.16,2.16,0,0,1,1-.14h2.46a1.35,1.35,0,0,1,.86.28.85.85,0,0,1,.37.72,5,5,0,0,1-1.51,3,12.43,12.43,0,0,1-4.28,3,15.15,15.15,0,0,1-6.35,1.26A12.06,12.06,0,0,1,321.35,121.53Zm16.94-13.62v-.17a9.44,9.44,0,0,0-2.12-6.37,7.17,7.17,0,0,0-5.71-2.46,7.05,7.05,0,0,0-5.7,2.46,9.57,9.57,0,0,0-2.07,6.37v.17Z"/><path d="M353.87,135.25a9.79,9.79,0,0,1-3.94-3.58,7.23,7.23,0,0,1-1.15-3.46,1.14,1.14,0,0,1,.39-.87,1.29,1.29,0,0,1,.9-.36h2.46a1.37,1.37,0,0,1,.84.25,1.88,1.88,0,0,1,.55.92q1.57,4.47,7.1,4.47,4.2,0,6.21-1.78c1.34-1.2,2-3.3,2-6.32v-3.86a10.84,10.84,0,0,1-9.05,4.14q-5.94,0-8.87-3.81a16.06,16.06,0,0,1-3.1-9.61l-.05-1.57.05-1.51a16.16,16.16,0,0,1,3.1-9.59q2.94-3.83,8.87-3.83a10.91,10.91,0,0,1,9.17,4.31v-2.4a1.34,1.34,0,0,1,.36-1,1.18,1.18,0,0,1,.92-.4h2.41a1.18,1.18,0,0,1,.92.4,1.34,1.34,0,0,1,.36,1V123.9q0,12.91-13,12.92A15.1,15.1,0,0,1,353.87,135.25Zm13.22-17.36a10.46,10.46,0,0,0,2.15-6.12c0-.34.06-1,.06-2s0-1.56-.06-1.9a10.51,10.51,0,0,0-2.15-6.12,7,7,0,0,0-5.9-2.54c-2.68,0-4.63.84-5.84,2.54a12,12,0,0,0-2,6.57l-.06,1.45.06,1.51a11.89,11.89,0,0,0,2,6.57q1.81,2.55,5.84,2.55A7,7,0,0,0,367.09,117.89Z"/><path d="M384.74,124a9.42,9.42,0,0,1-3.69-3,7.16,7.16,0,0,1-1.37-4.28,7.28,7.28,0,0,1,3-6,17.45,17.45,0,0,1,8.21-3.14l8.39-1.17v-1.62q0-5.76-6.65-5.76a7.46,7.46,0,0,0-4.14,1,6.61,6.61,0,0,0-2.29,2.44,1.79,1.79,0,0,1-.48.75,1.12,1.12,0,0,1-.7.2h-2.18a1.26,1.26,0,0,1-1.23-1.23,5.38,5.38,0,0,1,1.21-3,9.77,9.77,0,0,1,3.71-3,13.65,13.65,0,0,1,6.15-1.26q6.27,0,9,2.91a10.28,10.28,0,0,1,2.71,7.27v18.17a1.25,1.25,0,0,1-1.29,1.29h-2.46a1.13,1.13,0,0,1-.89-.37,1.28,1.28,0,0,1-.34-.92v-2.46a9.42,9.42,0,0,1-3.58,3.08,12.93,12.93,0,0,1-6,1.23A11.55,11.55,0,0,1,384.74,124ZM397,118.59q2.35-2.4,2.35-7V110l-6.54.95a15.06,15.06,0,0,0-6.09,1.9,4,4,0,0,0-.2,6.87,7.83,7.83,0,0,0,4.44,1.23A8.08,8.08,0,0,0,397,118.59Zm-7.71-28.32a4.07,4.07,0,0,1-1.35-3.1A4.14,4.14,0,0,1,389.24,84a4.94,4.94,0,0,1,6.59,0,4.14,4.14,0,0,1,1.35,3.16,4.07,4.07,0,0,1-1.35,3.1,4.94,4.94,0,0,1-6.59,0Zm4.5-1.9a1.66,1.66,0,0,0,.47-1.2,1.68,1.68,0,1,0-3.35,0,1.66,1.66,0,0,0,.47,1.2,1.75,1.75,0,0,0,2.41,0Z"/><path d="M413.89,121.53c-2.28-2.37-3.52-5.6-3.75-9.7l-.05-1.91.05-1.84a14.61,14.61,0,0,1,3.75-9.62A12,12,0,0,1,423,94.88q6.15,0,9.53,3.92t3.39,10.62v1a1.22,1.22,0,0,1-.37.92,1.25,1.25,0,0,1-.92.36h-19.4v.51a10.35,10.35,0,0,0,2.24,6.2A6.65,6.65,0,0,0,423,121a7.92,7.92,0,0,0,4.27-1,9.24,9.24,0,0,0,2.49-2.15,3,3,0,0,1,.78-.81,2.22,2.22,0,0,1,.95-.14h2.46a1.35,1.35,0,0,1,.87.28.87.87,0,0,1,.36.72,5,5,0,0,1-1.51,3,12.38,12.38,0,0,1-4.27,3,15.18,15.18,0,0,1-6.35,1.26A12.06,12.06,0,0,1,413.89,121.53Zm16.94-13.62v-.17a9.39,9.39,0,0,0-2.13-6.37,7.13,7.13,0,0,0-5.7-2.46,7.05,7.05,0,0,0-5.7,2.46,9.57,9.57,0,0,0-2.07,6.37v.17Z"/><path d="M442.09,124.15a1.25,1.25,0,0,1-.36-.92V96.73a1.25,1.25,0,0,1,.36-.92,1.28,1.28,0,0,1,.93-.37h2.4a1.3,1.3,0,0,1,.95.34,1.26,1.26,0,0,1,.34,1v2.46A12,12,0,0,1,450.59,96a12.2,12.2,0,0,1,5.51-1.12,10.42,10.42,0,0,1,8.33,3.44,13.42,13.42,0,0,1,3,9.09v15.82a1.25,1.25,0,0,1-.36.92,1.22,1.22,0,0,1-.92.37h-2.57a1.25,1.25,0,0,1-1.29-1.29V107.74a9.17,9.17,0,0,0-2-6.26,7,7,0,0,0-5.59-2.23,7.45,7.45,0,0,0-5.7,2.26,8.74,8.74,0,0,0-2.13,6.23v15.49a1.25,1.25,0,0,1-.36.92,1.22,1.22,0,0,1-.92.37H443A1.24,1.24,0,0,1,442.09,124.15Z"/><path d="M476.31,121.27a16.31,16.31,0,0,1-3.16-9.61l-.06-1.68.06-1.68a16.34,16.34,0,0,1,3.18-9.59q3-3.83,8.78-3.83A10.85,10.85,0,0,1,494.17,99V86.11a1.27,1.27,0,0,1,.36-.93,1.26,1.26,0,0,1,.93-.36H498a1.25,1.25,0,0,1,1.29,1.29v37.12a1.26,1.26,0,0,1-1.29,1.29h-2.4a1.15,1.15,0,0,1-.9-.37,1.31,1.31,0,0,1-.33-.92v-2.4q-3.19,4.24-9.23,4.25Q479.25,125.08,476.31,121.27ZM492,118.12a10.85,10.85,0,0,0,2.13-6.18c0-.41.05-1.12.05-2.13s0-1.77-.05-2.18a9.57,9.57,0,0,0-2.15-5.9,7.15,7.15,0,0,0-5.85-2.48c-2.68,0-4.64.83-5.87,2.51a11.74,11.74,0,0,0-2,6.6l-.06,1.62q0,10.74,7.94,10.74A6.88,6.88,0,0,0,492,118.12Z"/><path d="M509.07,121.53q-3.4-3.56-3.75-9.7l-.05-1.91.05-1.84a14.66,14.66,0,0,1,3.75-9.62,12,12,0,0,1,9.11-3.58q6.15,0,9.54,3.92t3.38,10.62v1a1.22,1.22,0,0,1-.37.92,1.25,1.25,0,0,1-.92.36h-19.4v.51a10.35,10.35,0,0,0,2.24,6.2,6.66,6.66,0,0,0,5.48,2.57,7.92,7.92,0,0,0,4.27-1,9.24,9.24,0,0,0,2.49-2.15,3,3,0,0,1,.78-.81,2.25,2.25,0,0,1,1-.14h2.46a1.35,1.35,0,0,1,.86.28.88.88,0,0,1,.37.72,5,5,0,0,1-1.51,3,12.53,12.53,0,0,1-4.28,3,15.18,15.18,0,0,1-6.35,1.26A12.06,12.06,0,0,1,509.07,121.53ZM526,107.91v-.17a9.44,9.44,0,0,0-2.12-6.37,7.17,7.17,0,0,0-5.71-2.46,7.05,7.05,0,0,0-5.7,2.46,9.57,9.57,0,0,0-2.07,6.37v.17Z"/><path d="M555.11,123.82a10.91,10.91,0,0,1-3.94-2.88,4.8,4.8,0,0,1-1.29-2.68,1,1,0,0,1,.39-.87,1.31,1.31,0,0,1,.84-.31h2.35a1.13,1.13,0,0,1,.53.11,2.59,2.59,0,0,1,.53.51,10.38,10.38,0,0,0,2.88,2.46,8.85,8.85,0,0,0,4.28.89,9.13,9.13,0,0,0,4.84-1.12,3.57,3.57,0,0,0,1.81-3.24,3.17,3.17,0,0,0-.78-2.24,6.78,6.78,0,0,0-2.6-1.51,44.76,44.76,0,0,0-5.39-1.45q-4.87-1.06-6.88-3.07a7.06,7.06,0,0,1-2-5.2,7.33,7.33,0,0,1,1.23-4,8.81,8.81,0,0,1,3.66-3.13,13,13,0,0,1,5.79-1.21,14.06,14.06,0,0,1,6,1.18,10.47,10.47,0,0,1,3.74,2.74,4.6,4.6,0,0,1,1.26,2.63,1.08,1.08,0,0,1-.36.83,1.24,1.24,0,0,1-.87.34H569a1.15,1.15,0,0,1-1.11-.61c-.64-.71-1.17-1.26-1.6-1.65a5.18,5.18,0,0,0-1.87-1,9.64,9.64,0,0,0-3.07-.42,6.63,6.63,0,0,0-4.2,1.15,3.67,3.67,0,0,0-1.45,3,3.19,3.19,0,0,0,.61,2,5.62,5.62,0,0,0,2.35,1.51,33.43,33.43,0,0,0,5.15,1.42c3.54.75,6,1.81,7.52,3.19a7,7,0,0,1,2.2,5.31,7.35,7.35,0,0,1-1.37,4.36,9,9,0,0,1-4.08,3.08,17,17,0,0,1-6.46,1.12A15.12,15.12,0,0,1,555.11,123.82Z"/><path d="M579.34,124.15a1.25,1.25,0,0,1-.36-.92V86.11a1.23,1.23,0,0,1,.36-1,1.29,1.29,0,0,1,.93-.34h2.4a1.25,1.25,0,0,1,.92.36,1.28,1.28,0,0,1,.37.93v19.51l11.18-9.23a10.19,10.19,0,0,1,1.17-.78,2.55,2.55,0,0,1,1.06-.17h2.8a1.12,1.12,0,0,1,.81.31,1.21,1.21,0,0,1,.31.87,1.54,1.54,0,0,1-.62,1.06l-13.08,10.74,14.48,13.86a1.71,1.71,0,0,1,.62,1.06,1.21,1.21,0,0,1-.31.84,1,1,0,0,1-.81.34h-2.74a3.1,3.1,0,0,1-1.2-.17,4.54,4.54,0,0,1-1-.78L584,111.6v11.63a1.26,1.26,0,0,1-.37.92,1.22,1.22,0,0,1-.92.37h-2.4A1.23,1.23,0,0,1,579.34,124.15Z"/><path d="M608.21,121.61a13.57,13.57,0,0,1-3.55-9.23l-.06-2.4.06-2.4a13.46,13.46,0,0,1,3.6-9.23q3.39-3.46,9.42-3.47t9.43,3.47a13.46,13.46,0,0,1,3.6,9.23c.08.82.11,1.62.11,2.4s0,1.59-.11,2.4a13.57,13.57,0,0,1-3.55,9.23c-2.22,2.31-5.37,3.47-9.48,3.47S610.43,123.92,608.21,121.61Zm15.15-3a9.82,9.82,0,0,0,2.26-6.51q.06-.57.06-2.13c0-1,0-1.75-.06-2.12a9.83,9.83,0,0,0-2.26-6.52,8.26,8.26,0,0,0-11.35,0,9.83,9.83,0,0,0-2.26,6.52l-.06,2.12.06,2.13a9.82,9.82,0,0,0,2.26,6.51,8.26,8.26,0,0,0,11.35,0Z"/><path d="M637.22,124.15a1.25,1.25,0,0,1-.36-.92V86.11a1.23,1.23,0,0,1,.36-1,1.28,1.28,0,0,1,.92-.34h2.46a1.29,1.29,0,0,1,.93.36,1.27,1.27,0,0,1,.36.93v37.12a1.25,1.25,0,0,1-1.29,1.29h-2.46A1.22,1.22,0,0,1,637.22,124.15Z"/><path d="M651.71,121.53q-3.42-3.56-3.75-9.7l-.06-1.91.06-1.84a14.56,14.56,0,0,1,3.75-9.62,12,12,0,0,1,9.11-3.58q6.15,0,9.53,3.92t3.39,10.62v1a1.25,1.25,0,0,1-1.29,1.28h-19.4v.51a10.35,10.35,0,0,0,2.24,6.2,6.64,6.64,0,0,0,5.47,2.57,7.93,7.93,0,0,0,4.28-1,9.24,9.24,0,0,0,2.49-2.15,3,3,0,0,1,.78-.81,2.22,2.22,0,0,1,1-.14h2.46a1.35,1.35,0,0,1,.87.28.87.87,0,0,1,.36.72,5,5,0,0,1-1.51,3,12.38,12.38,0,0,1-4.27,3,15.18,15.18,0,0,1-6.35,1.26A12.06,12.06,0,0,1,651.71,121.53Zm16.94-13.62v-.17a9.39,9.39,0,0,0-2.13-6.37,7.13,7.13,0,0,0-5.7-2.46,7.05,7.05,0,0,0-5.7,2.46,9.57,9.57,0,0,0-2.07,6.37v.17Z"/></svg>